<?xml version="1.0" standalone="no"?>
<!DOCTYPE svg PUBLIC "-//W3C//DTD SVG 20010904//EN"
 "http://www.w3.org/TR/2001/REC-SVG-20010904/DTD/svg10.dtd">
<svg version="1.0" xmlns="http://www.w3.org/2000/svg"
 width="512.000000pt" height="512.000000pt" viewBox="0 0 512.000000 512.000000"
 preserveAspectRatio="xMidYMid meet">
<metadata>
Created by potrace 1.14, written by Peter Selinger 2001-2017
</metadata>
<g transform="translate(0.000000,512.000000) scale(0.100000,-0.100000)"
fill="#000000" stroke="none">
<path d="M2482 3829 c-23 -12 -51 -33 -61 -48 -10 -14 -270 -529 -576 -1144
-400 -802 -559 -1130 -562 -1161 -10 -87 55 -175 142 -193 49 -10 2225 -9
2277 1 81 15 140 97 133 187 -3 48 -46 139 -358 764 -194 391 -443 890 -552
1110 -109 220 -209 415 -223 434 -29 39 -92 70 -142 71 -19 0 -54 -10 -78 -21z
m477 -1371 c216 -436 395 -798 398 -804 3 -7 -228 -11 -797 -11 -440 0 -800 1
-800 2 0 10 795 1605 800 1605 3 0 183 -357 399 -792z"/>
</g>
</svg>
